<?xml version="1.0" encoding="UTF-8" standalone="no"?>
<!-- Created with Inkscape (http://www.inkscape.org/) -->

<svg
   width="256"
   height="256"
   viewBox="0 0 67.733332 67.733333"
   version="1.1"
   id="svg1"
   inkscape:version="1.4.3 (0d15f75042, 2025-12-25)"
   sodipodi:docname="new_logo_maskable.svg"
   inkscape:export-filename="../../web/icons/Icon-maskable-512.png"
   inkscape:export-xdpi="192"
   inkscape:export-ydpi="192"
   xmlns:inkscape="http://www.inkscape.org/namespaces/inkscape"
   xmlns:sodipodi="http://sodipodi.sourceforge.net/DTD/sodipodi-0.dtd"
   xmlns="http://www.w3.org/2000/svg"
   xmlns:svg="http://www.w3.org/2000/svg">
  <sodipodi:namedview
     id="namedview1"
     pagecolor="#ffffff"
     bordercolor="#000000"
     borderopacity="0.25"
     inkscape:showpageshadow="2"
     inkscape:pageopacity="0.0"
     inkscape:pagecheckerboard="true"
     inkscape:deskcolor="#d1d1d1"
     inkscape:document-units="px"
     inkscape:zoom="1.0000001"
     inkscape:cx="70.499993"
     inkscape:cy="54.499995"
     inkscape:window-width="1500"
     inkscape:window-height="869"
     inkscape:window-x="0"
     inkscape:window-y="0"
     inkscape:window-maximized="1"
     inkscape:current-layer="layer1"
     showgrid="false" />
  <defs
     id="defs1" />
  <g
     inkscape:groupmode="layer"
     id="layer2"
     inkscape:label="Safe Zone"
     sodipodi:insensitive="true">
    <circle
       style="fill:#ff00ff;fill-opacity:1;stroke-width:0.304093"
       id="path1"
       cx="33.866665"
       cy="33.866665"
       r="27.093332"
       sodipodi:insensitive="true" />
  </g>
  <g
     inkscape:label="Layer 1"
     inkscape:groupmode="layer"
     id="layer1">
    <rect
       style="fill:#ffffff;fill-opacity:1;stroke-width:1.16756"
       id="rect7"
       width="67.73333"
       height="67.73333"
       x="1.3635254e-06"
       y="1.3635254e-06" />
    <g
       id="g7"
       transform="matrix(1.0670091,0,0,1.0670091,-2.9397996,-3.4950995)">
      <path
         id="rect1-3"
         style="fill:#0083ff;fill-opacity:1;stroke-width:0.204381"
         d="m 46.867512,41.659579 c -1.423542,0 -2.642122,0.50679 -3.655857,1.520525 -1.013736,1.013735 -1.520525,2.232315 -1.520525,3.655858 0,1.423541 0.506789,2.642114 1.520525,3.655857 1.013735,1.013735 2.232315,1.520824 3.655857,1.520824 0.496088,0 0.965297,-0.05951 1.40746,-0.178144 0.442162,-0.118632 0.857267,-0.296578 1.245511,-0.533834 l 2.04356,2.043562 c 0.708236,-0.489119 1.322616,-1.103498 1.811734,-1.811734 l -2.043561,-2.043561 c 0.237254,-0.388236 0.4152,-0.803349 0.533833,-1.245511 0.118601,-0.442163 0.178144,-0.911378 0.178144,-1.407459 0,-1.423543 -0.50709,-2.642123 -1.520824,-3.655858 -1.013742,-1.013735 -2.232309,-1.520525 -3.655857,-1.520525 z m 0,2.588191 c 0.733344,0 1.353457,0.247984 1.860318,0.744067 0.506868,0.496083 0.74945,1.110786 0.727872,1.844125 -0.02157,0.862754 -0.274965,1.509922 -0.760262,1.941292 -0.485304,0.431385 -1.094584,0.646898 -1.827928,0.646898 -0.733338,0 -1.348041,-0.247986 -1.844124,-0.744067 -0.496083,-0.496084 -0.744068,-1.110779 -0.744068,-1.844123 0,-0.733339 0.247985,-1.348042 0.744068,-1.844125 0.496083,-0.496083 1.110786,-0.744067 1.844124,-0.744067 z" />
      <path
         id="path23"
         style="fill:#0083ff;fill-opacity:1;stroke-width:0.038388"
         d="m 22.351375,19.248785 c -0.844536,0 -1.56751,0.300706 -2.168922,0.902118 -0.601412,0.601411 -0.902118,1.324386 -0.902118,2.168922 v 24.568319 c 0,0.844538 0.300706,1.567512 0.902118,2.168923 0.601412,0.601412 1.324386,0.902118 2.168922,0.902118 H 41.847942 C 40.980344,48.462057 41.010905,46.888144 41.010905,46.888144 H 22.351375 V 22.319825 h 24.56832 v 18.879179 c 1.891622,-0.0904 3.071041,0.89654 3.071041,0.89654 V 22.319825 c 0,-0.844536 -0.300709,-1.567511 -0.902119,-2.168922 -0.601413,-0.601412 -1.324388,-0.902118 -2.168922,-0.902118 z m 5.681424,5.374319 c -0.358288,0 -0.684587,0.115164 -0.978895,0.345492 -0.294308,0.230329 -0.505441,0.524637 -0.633401,0.882925 l -2.533608,7.370496 v 10.134432 c 0,0.358288 0.115164,0.652596 0.345492,0.882924 0.230328,0.230328 0.524636,0.345492 0.882924,0.345492 h 0.614208 c 0.358288,0 0.652596,-0.115164 0.882923,-0.345492 0.230329,-0.230328 0.345493,-0.524636 0.345493,-0.882924 v -1.842624 h 15.3552 c -0.1808,1.744191 0.197339,1.622792 0.197339,1.622792 0.517843,-0.863097 1.954399,-1.57547 2.411246,-1.79014 0.456845,-0.21467 0.462381,-0.837571 0.462381,-0.837571 v -7.286963 l -2.533537,-7.370422 c -0.12796,-0.358288 -0.339093,-0.652596 -0.633401,-0.882925 -0.294309,-0.230328 -0.620607,-0.345492 -0.978895,-0.345492 z m 0.998088,3.071041 h 11.209296 l 1.074864,3.071039 H 27.956023 Z m -2.072952,6.14208 h 15.3552 v 4.60656 h -15.3552 z m 3.07104,0.76776 c -0.435063,0 -0.79975,0.147154 -1.094058,0.441462 -0.294309,0.294309 -0.441462,0.658995 -0.441462,1.094058 0,0.435064 0.147153,0.79975 0.441462,1.094058 0.294308,0.294309 0.658995,0.441462 1.094058,0.441462 0.435065,0 0.799751,-0.147153 1.094058,-0.441462 0.294309,-0.294308 0.441462,-0.658994 0.441462,-1.094058 0,-0.435063 -0.147153,-0.799749 -0.441462,-1.094058 -0.294307,-0.294308 -0.658993,-0.441462 -1.094058,-0.441462 z m 9.213121,0 c -0.435065,0 -0.79975,0.147154 -1.094059,0.441462 -0.294307,0.294309 -0.441462,0.658995 -0.441462,1.094058 0,0.435064 0.147155,0.79975 0.441462,1.094058 0.294309,0.294309 0.658994,0.441462 1.094059,0.441462 0.435064,0 0.79975,-0.147153 1.094057,-0.441462 0.294309,-0.294308 0.441462,-0.658994 0.441462,-1.094058 0,-0.435063 -0.147153,-0.799749 -0.441462,-1.094058 -0.294307,-0.294308 -0.658993,-0.441462 -1.094057,-0.441462 z"
         sodipodi:nodetypes="sssssscccccccssssssccssssssccczcccsssccccccccccssssssssssssssssss" />
      <path
         style="stroke-width:0.0684844"
         d="M 11.393596,11.362041 V 55.192087 Z"
         id="path10" />
    </g>
  </g>
</svg>
