<?xml version="1.0" encoding="UTF-8" standalone="no"?>
<!-- Created with Inkscape (http://www.inkscape.org/) -->

<svg
   width="256"
   height="256"
   viewBox="0 0 67.733332 67.733333"
   version="1.1"
   id="svg1"
   inkscape:version="1.4.3 (0d15f75042, 2025-12-25)"
   sodipodi:docname="new_logo.svg"
   inkscape:export-filename="../../web/icons/Icon-192.png"
   inkscape:export-xdpi="72"
   inkscape:export-ydpi="72"
   xmlns:inkscape="http://www.inkscape.org/namespaces/inkscape"
   xmlns:sodipodi="http://sodipodi.sourceforge.net/DTD/sodipodi-0.dtd"
   xmlns="http://www.w3.org/2000/svg"
   xmlns:svg="http://www.w3.org/2000/svg">
  <sodipodi:namedview
     id="namedview1"
     pagecolor="#ffffff"
     bordercolor="#000000"
     borderopacity="0.25"
     inkscape:showpageshadow="2"
     inkscape:pageopacity="0.0"
     inkscape:pagecheckerboard="0"
     inkscape:deskcolor="#d1d1d1"
     inkscape:document-units="mm"
     inkscape:zoom="1.4142136"
     inkscape:cx="156.62415"
     inkscape:cy="170.05918"
     inkscape:window-width="1500"
     inkscape:window-height="869"
     inkscape:window-x="0"
     inkscape:window-y="0"
     inkscape:window-maximized="1"
     inkscape:current-layer="layer1" />
  <defs
     id="defs1" />
  <g
     inkscape:label="Layer 1"
     inkscape:groupmode="layer"
     id="layer1">
    <path
       d="m 57.503657,57.698761 c 0.836208,-0.743288 1.272891,-1.858245 1.310058,-3.344845 0.03718,-1.263605 -0.380954,-2.322821 -1.25433,-3.177613 -0.873365,-0.854794 -1.941867,-1.282188 -3.205483,-1.282188 -1.263605,0 -2.322808,0.427394 -3.177601,1.282188 -0.854793,0.854792 -1.282188,1.914008 -1.282188,3.177613 0,1.263616 0.427395,2.32282 1.282188,3.177613 0.854793,0.854792 1.913996,1.282189 3.177601,1.282189 1.263616,0 2.313535,-0.371644 3.149755,-1.114957 z m -3.149755,5.574757 c -2.452885,0 -4.55271,-0.873375 -6.299463,-2.620128 -1.746752,-1.746765 -2.620141,-3.84659 -2.620141,-6.299474 0,-2.452885 0.873389,-4.552722 2.620141,-6.299475 1.746753,-1.746752 3.846578,-2.620141 6.299463,-2.620141 2.452897,0 4.552722,0.873389 6.299486,2.620141 1.746752,1.746753 2.620128,3.84659 2.620128,6.299475 0,0.854791 -0.102244,1.66313 -0.306605,2.425014 -0.204415,0.761884 -0.511019,1.477316 -0.91983,2.14628 l 5.686252,5.686263 -1.560933,1.56093 -1.560934,1.56093 -5.686246,-5.686251 c -0.668976,0.408812 -1.384407,0.715418 -2.146291,0.91983 -0.761885,0.204414 -1.570223,0.306606 -2.425027,0.306606 z"
       id="path1"
       style="fill:#0083ff;fill-opacity:1;stroke-width:0.0557474"
       sodipodi:nodetypes="scssssssssssssssscccccss" />
    <path
       d="m -6.2917851,-107.90643 v 1.80364 q 0,0.76654 -0.518544,1.28508 -0.518544,0.51855 -1.285087,0.51855 h -1.80363 q -0.7665429,0 -1.2850859,-0.51855 -0.518544,-0.51854 -0.518544,-1.28508 v -14.42905 l 3.7876239,-10.82178 q 0.270544,-0.81163 0.969451,-1.30763 0.698906,-0.496 1.555631,-0.496 H 14.449963 q 0.856726,0 1.555631,0.496 0.698907,0.496 0.969451,1.30763 l 3.787625,10.82178 v 14.42905 q 0,0.76654 -0.518544,1.28508 -0.518545,0.51855 -1.285086,0.51855 h -1.803632 q -0.766541,0 -1.285086,-0.51855 -0.518543,-0.51854 -0.518543,-1.28508 v -1.80364 z m -0.360726,-16.23267 H 15.712505 l -1.893811,-5.41089 H -4.7587001 Z m -1.442905,3.60726 v 9.01816 z m 4.509077,7.21452 q 1.127268,0 1.916356,-0.78908 0.78908896,-0.78909 0.78908896,-1.91636 0,-1.12727 -0.78908896,-1.91636 -0.789088,-0.78909 -1.916356,-0.78909 -1.12727,0 -1.916358,0.78909 -0.789088,0.78909 -0.789088,1.91636 0,1.12727 0.789088,1.91636 0.789088,0.78908 1.916358,0.78908 z m 16.2326721,0 q 1.127269,0 1.916357,-0.78908 0.789089,-0.78909 0.789089,-1.91636 0,-1.12727 -0.789089,-1.91636 -0.789088,-0.78909 -1.916357,-0.78909 -1.127268,0 -1.916357,0.78909 -0.7890881,0.78909 -0.7890881,1.91636 0,1.12727 0.7890881,1.91636 0.789089,0.78908 1.916357,0.78908 z m -20.7417491,1.80364 H 17.155408 v -9.01816 H -8.0954161 Z"
       id="path1-6"
       style="fill:#0083ff;fill-opacity:1;stroke-width:0.0450907" />
    <path
       d="m 31.234498,-117.96927 h 7.437575 l 1.366086,-5.61613 c 0.0506,-0.20238 0.09487,-0.41109 0.132813,-0.62612 0.03795,-0.21504 0.05692,-0.42374 0.05692,-0.62613 0,-1.41668 -0.505957,-2.64995 -1.517872,-3.69981 -1.011914,-1.04986 -2.26416,-1.57479 -3.756734,-1.57479 -1.492575,0 -2.744821,0.5186 -3.756735,1.55582 -1.011916,1.03721 -1.517874,2.26416 -1.517874,3.68084 0,0.20238 0.01897,0.41741 0.05692,0.64509 0.03794,0.22768 0.08222,0.44272 0.132813,0.6451 z m 0.303576,-6.83043 h 2.276809 c 0,-0.30357 0.11384,-0.5692 0.341521,-0.79688 0.227681,-0.22768 0.493309,-0.34152 0.796883,-0.34152 0.303574,0 0.569203,0.11384 0.796884,0.34152 0.227681,0.22768 0.341521,0.49331 0.341521,0.79688 H 38.3685 c 0,-0.96132 -0.328872,-1.77085 -0.986616,-2.4286 -0.657747,-0.65774 -1.467278,-0.98661 -2.428597,-0.98661 -0.961319,0 -1.770852,0.32887 -2.428597,0.98661 -0.657745,0.65775 -0.986616,1.46728 -0.986616,2.4286 z m 0.379467,4.55362 h 6.071489 v -2.27681 h -6.071489 z m 1.517873,15.93766 v -10.62511 h -4.553619 l -1.973234,-7.89294 c -0.07589,-0.35417 -0.139139,-0.69569 -0.189734,-1.02456 -0.0506,-0.32887 -0.07589,-0.67039 -0.07589,-1.02456 0,-2.22622 0.790558,-4.1615 2.371675,-5.80587 1.581117,-1.64436 3.560677,-2.46654 5.938678,-2.46654 2.378,0 4.357559,0.82218 5.938676,2.46654 1.581118,1.64437 2.371676,3.57965 2.371676,5.80587 0,0.35417 -0.0253,0.69569 -0.07589,1.02456 -0.0506,0.32887 -0.11384,0.67039 -0.189735,1.02456 l -1.973233,7.89294 h -4.553617 v 10.62511 z"
       id="path1-60"
       style="fill:#0083ff;fill-opacity:1;stroke-width:0.0379467"
       sodipodi:nodetypes="cccsssssssccccsssccsssccccccccccsssssssccccc" />
    <path
       id="rect2"
       style="fill:#ff0000;fill-opacity:1;stroke-width:0.708504"
       d="m 135.4488,-141.74614 v 67.733329 H 67.715466 Z"
       sodipodi:nodetypes="cccc" />
    <path
       id="rect2-7"
       style="fill:#0000ff;fill-opacity:1;stroke-width:0.708504"
       d="m -131.47057,-73.786237 v -67.733333 h 67.733331 z"
       sodipodi:nodetypes="cccc" />
    <path
       id="path23"
       style="fill:#0083ff;fill-opacity:1;stroke-width:0.0661458"
       d="m 12.110372,6.8187052 c -1.455209,0 -2.7009551,0.518142 -3.7372397,1.5544271 C 7.336847,9.4094156 6.8187052,10.655163 6.8187052,12.110372 v 42.333333 c 0,1.455209 0.5181418,2.700956 1.5544271,3.73724 1.0362846,1.036285 2.2820307,1.554427 3.7372397,1.554427 H 45.704638 C 44.209691,57.155692 44.26235,54.443705 44.26235,54.443705 H 12.110372 V 12.110372 h 42.333333 v 32.530452 c 3.259428,-0.155769 5.291667,1.544816 5.291667,1.544816 V 12.110372 c 0,-1.455209 -0.518146,-2.7009564 -1.554427,-3.7372397 C 57.144658,7.3368472 55.89891,6.8187052 54.443705,6.8187052 Z m 9.789583,9.2604168 c -0.617361,0 -1.179601,0.198437 -1.686719,0.595312 -0.507118,0.396875 -0.87092,0.903993 -1.091406,1.521355 l -4.365625,12.7 v 17.4625 c 0,0.617361 0.198438,1.124479 0.595313,1.521354 0.396875,0.396875 0.903993,0.595312 1.521354,0.595312 h 1.058333 c 0.617361,0 1.124479,-0.198437 1.521354,-0.595312 0.396875,-0.396875 0.595313,-0.903993 0.595313,-1.521354 v -3.175 h 26.458333 c -0.311534,3.005391 0.340031,2.796211 0.340031,2.796211 0.892288,-1.487191 3.3676,-2.714671 4.154785,-3.084566 0.787185,-0.369895 0.796723,-1.443207 0.796723,-1.443207 V 30.89566 L 47.432242,18.195789 c -0.220486,-0.617362 -0.584287,-1.12448 -1.091406,-1.521355 -0.507119,-0.396875 -1.069358,-0.595312 -1.686719,-0.595312 z m 1.719792,5.291667 H 42.93433 l 1.852084,5.291666 h -23.01875 z m -3.571875,10.583333 h 26.458333 v 7.9375 H 20.047872 Z m 5.291667,1.322917 c -0.749653,0 -1.378039,0.253559 -1.885157,0.760677 -0.507119,0.507119 -0.760677,1.135505 -0.760677,1.885156 0,0.749654 0.253558,1.378038 0.760677,1.885156 0.507118,0.507119 1.135504,0.760677 1.885157,0.760677 0.749653,0 1.378039,-0.253558 1.885156,-0.760677 0.507119,-0.507118 0.760677,-1.135502 0.760677,-1.885156 0,-0.749651 -0.253558,-1.378037 -0.760677,-1.885156 -0.507117,-0.507118 -1.135503,-0.760677 -1.885156,-0.760677 z m 15.875,0 c -0.749653,0 -1.378038,0.253559 -1.885157,0.760677 -0.507117,0.507119 -0.760677,1.135505 -0.760677,1.885156 0,0.749654 0.25356,1.378038 0.760677,1.885156 0.507119,0.507119 1.135504,0.760677 1.885157,0.760677 0.749653,0 1.378039,-0.253558 1.885156,-0.760677 0.507119,-0.507118 0.760677,-1.135502 0.760677,-1.885156 0,-0.749651 -0.253558,-1.378037 -0.760677,-1.885156 -0.507117,-0.507118 -1.135503,-0.760677 -1.885156,-0.760677 z"
       sodipodi:nodetypes="sssssscccccccssssssccssssssccczcccsssccccccccccssssssssssssssssss" />
    <path
       style="stroke-width:0.0661458"
       d="M 12.1104,12.110396 V 54.443732 Z"
       id="path10" />
  </g>
</svg>
